<svg width="38" height="44" viewBox="0 0 38 44" fill="none" xmlns="http://www.w3.org/2000/svg">
<path d="M21.5 3C21.5 1.61929 20.3807 0.5 19 0.5C17.6193 0.5 16.5 1.61929 16.5 3H21.5ZM17.2322 42.7678C18.2085 43.7441 19.7915 43.7441 20.7678 42.7678L36.6777 26.8579C37.654 25.8816 37.654 24.2986 36.6777 23.3223C35.7014 22.346 34.1184 22.346 33.1421 23.3223L19 37.4645L4.85786 23.3223C3.88155 22.346 2.29864 22.346 1.32233 23.3223C0.34602 24.2986 0.34602 25.8816 1.32233 26.8579L17.2322 42.7678ZM16.5 3L16.5 41H21.5L21.5 3H16.5Z" fill="#291503"/>
</svg>
