<svg width="1440" height="220" viewBox="0 0 1440 220" fill="none" xmlns="http://www.w3.org/2000/svg">
<path d="M0 0.5H1440V92.0753C1440 106.522 1433.75 120.263 1422.86 129.758L1414.95 136.66C1393.27 155.564 1360.16 152.328 1342.55 129.586L1320.13 100.626C1296.54 70.1585 1248.81 76.6975 1234.28 112.386L1210.7 170.335C1195.35 208.037 1143.79 212.584 1122.09 178.15L1096.73 137.917C1079.98 111.348 1042.87 107.25 1020.73 129.524V129.524C999.086 151.295 962.964 147.952 945.683 122.577L939.2 113.056C916.211 79.2994 864.639 85.8511 850.821 124.284L837.509 161.311C823.558 200.114 767.988 198.034 756.978 158.296V158.296C748.91 129.179 713.791 117.677 690.062 136.379L686.654 139.065C664.98 156.147 633.188 149.969 619.489 126.012L584.978 65.66C565.874 32.2513 517.77 32.0461 498.382 65.2906L477.433 101.211C464.227 123.856 435.773 132.457 412.234 120.918L391.184 110.6C364.417 97.4789 332.189 110.546 322.117 138.603L305.045 186.16C289.958 228.188 231.536 230.865 212.668 190.393L189.581 140.872C176.312 112.408 140.395 103.081 114.952 121.492L98.06 133.715C78.5933 147.802 51.8591 146.049 34.3983 129.541L15.65 111.816C5.66031 102.371 0 89.2305 0 75.4831V0.5Z" fill="#A37A49"/>
</svg>
