<svg width="636" height="458" viewBox="0 0 636 458" fill="none" xmlns="http://www.w3.org/2000/svg">
<path d="M636 355.932L627.93 435.082C624.834 465.441 580.446 464.96 578.009 434.542L572.523 366.074C570.887 345.665 541.356 344.664 538.342 364.915V364.915C535.296 385.389 505.341 384.047 504.136 363.383L500.126 294.59C498.438 265.631 456.601 263.392 451.832 292.006L447.091 320.452C441.931 351.414 397.306 351.059 392.638 320.019L385.187 270.473C381.892 248.558 354.695 240.208 339.67 256.497V256.497C325.328 272.046 299.438 265.259 294.568 244.674L269.807 140.002C263.431 113.048 226.851 108.797 214.464 133.572V133.572C203.551 155.398 172.411 155.417 161.47 133.604L144.785 100.337C131.156 73.1624 91.3353 76.5532 82.4967 105.641V105.641C72.1126 139.816 22.6605 136.414 17.0534 101.14L0.5 -3.00012L636 -22.0001L636 355.932Z" fill="url(#paint0_radial_237_29)"/>
<defs>
<radialGradient id="paint0_radial_237_29" cx="0" cy="0" r="1" gradientUnits="userSpaceOnUse" gradientTransform="translate(286.5 370) rotate(-58.7249) scale(536.455 854.518)">
<stop stop-color="#4F0000" stop-opacity="0.7"/>
<stop offset="1" stop-color="#F4D1D1"/>
</radialGradient>
</defs>
</svg>
