<svg width="1280" height="122" viewBox="0 0 1280 122" fill="none" xmlns="http://www.w3.org/2000/svg">
<path d="M0 0.290322H1280V30.3839C1280 49.0505 1269.6 66.1628 1253.03 74.7622L1250.48 76.0854C1233.24 85.0346 1212.38 83.1872 1196.98 71.3476L1168.13 49.1712C1145.37 31.6757 1112.59 36.8923 1096.38 60.5875L1076.59 89.5254C1059.25 114.891 1023.34 118.753 1001 97.6574L973.304 71.5117C957.023 56.1401 932.508 53.4667 913.297 64.9679L901.425 72.0751C882.823 83.2112 859.164 81.0905 842.839 66.8236L830.658 56.1781C807.246 35.7172 771.035 41.3594 754.958 67.9733L741.706 89.9116C725.816 116.216 687 114.123 674.03 86.2632V86.2632C665.062 66.999 642.153 58.682 622.914 67.7061L606.231 75.5317C586.831 84.6319 563.789 80.3581 548.942 64.9058L517.479 32.1588C497.938 11.8203 465.452 11.6603 445.712 31.8055L424.518 53.4336C411.612 66.6043 392.505 71.6024 374.803 66.438L340.054 56.3003C318.277 49.9471 294.952 59.0504 283.236 78.4753L272.123 96.8999C254.039 126.881 211.537 129.472 189.946 101.909L169.534 75.8504C155.533 57.9769 131.248 51.7802 110.395 60.7608L80.0623 73.8242C65.7389 79.9929 49.3574 79.125 35.7659 71.4773L25.4809 65.6902C9.74045 56.8333 0 40.176 0 22.1148V0.290322Z" fill="#F4D1D1"/>
</svg>
