<svg width="715" height="559" viewBox="0 0 715 559" fill="none" xmlns="http://www.w3.org/2000/svg">
<path d="M0 39.5796C0 9.58839 32.5046 -9.1231 58.4395 5.93851V5.93851C68.572 11.8229 75.5125 21.9609 77.3328 33.5358L95.9691 152.039C99.2998 173.217 127.954 177.445 137.26 158.132V158.132C147.129 137.65 177.82 143.968 178.797 166.682L182.961 263.527C184.265 293.853 227.849 297.218 233.793 267.452V267.452C239.516 238.795 281.025 240.434 284.47 269.453L287.212 292.542C291.352 327.407 342.105 326.943 345.606 292.007L346.846 279.636C350.469 243.48 402.79 242.431 407.86 278.413L416.909 342.645C421.547 375.568 466.944 380.77 478.909 349.749V349.749C490.435 319.867 533.765 323.257 540.504 354.567L556.127 427.156C563.043 459.29 602.273 471.723 626.435 449.439V449.439C650.678 427.081 690.042 439.683 696.794 471.963L715 559H0V39.5796Z" fill="url(#paint0_radial_237_27)"/>
<defs>
<radialGradient id="paint0_radial_237_27" cx="0" cy="0" r="1" gradientUnits="userSpaceOnUse" gradientTransform="translate(399.5 158.5) rotate(94.1689) scale(392.037 1280.72)">
<stop offset="0.27754" stop-color="#4F0000" stop-opacity="0.7"/>
<stop offset="0.904" stop-color="#F4D1D1"/>
</radialGradient>
</defs>
</svg>
